<svg xmlns="http://www.w3.org/2000/svg" width="17" height="19" viewBox="0 0 17 19"><g><g><path fill="#aeb8bb" d="M11.818 18.991H5.262c-1.645 0-2.114-.618-2.98-2.542L.163 10.856C-.23 9.626.041 8.315 1.686 8.315h13.708c1.646 0 1.812 1.138 1.523 2.541l-2.119 5.593c-.76 1.895-1.334 2.542-2.98 2.542z"/></g><g><path fill="#aeb8bb" d="M5.515.007h5.49c1.378 0 1.77.55 2.495 2.26l1.774 4.971c.33 1.094.103 2.26-1.275 2.26h-.367a3.948 3.948 0 0 0-.255-2.373C11.365 2.45 12.118 1.187 9.31 1.187H7.276c-2.807 0-2.41 1.728-4.067 5.938a4.174 4.174 0 0 0-.22 2.373H2.52c-1.378 0-1.517-1.012-1.275-2.26l1.774-4.971C3.656.583 4.136.007 5.515.007z"/></g><g><g><text fill="#fff" dominant-baseline="text-before-edge" font-family="'Geometria','Geometria-Regular'" font-size="8" font-style="none" font-weight="400" transform="translate(5 9)"><tspan style="font-kerning:normal" letter-spacing=".24">+</tspan></text></g></g></g></svg>